<mxfile host="app.diagrams.net" modified="2023-11-16T15:51:26.894Z" agent="Mozilla/5.0 (Windows NT 10.0; Win64; x64) AppleWebKit/537.36 (KHTML, like Gecko) Chrome/119.0.0.0 Safari/537.36" etag="RlIRTtplqX50aqfXYWNs" version="22.1.2" type="github">
  <diagram name="Página-1" id="Q9GNLlyVEW6anbHTA-qK">
    <mxGraphModel dx="2081" dy="1731" grid="1" gridSize="10" guides="1" tooltips="1" connect="1" arrows="1" fold="1" page="1" pageScale="1" pageWidth="827" pageHeight="1169" math="0" shadow="0">
      <root>
        <mxCell id="0" />
        <mxCell id="1" parent="0" />
        <mxCell id="malCh2sEdEqplTAO-f5v-1" value="&lt;font style=&quot;font-size: 10px;&quot;&gt;&lt;b&gt;INVENTARIO &lt;br&gt;PROCESOS ALL&lt;/b&gt;&lt;/font&gt;" style="image;aspect=fixed;perimeter=ellipsePerimeter;html=1;align=center;shadow=0;dashed=0;spacingTop=3;image=img/lib/active_directory/list.svg;" vertex="1" parent="1">
          <mxGeometry x="-410.5" y="260" width="35" height="50" as="geometry" />
        </mxCell>
        <mxCell id="malCh2sEdEqplTAO-f5v-3" value="" style="shape=rect;strokeColor=none;fillColor=#ffffff;gradientColor=none;shadow=0;" vertex="1" parent="1">
          <mxGeometry x="-440" y="96" width="120" height="60" as="geometry" />
        </mxCell>
        <mxCell id="malCh2sEdEqplTAO-f5v-4" value="Trafico Cursado" style="shape=rect;strokeColor=none;fontSize=10;fontColor=#000000;resizeWidth=1;align=left;spacingLeft=25;spacingTop=2;whiteSpace=wrap;html=1;" vertex="1" parent="malCh2sEdEqplTAO-f5v-3">
          <mxGeometry width="120" height="20" relative="1" as="geometry" />
        </mxCell>
        <mxCell id="malCh2sEdEqplTAO-f5v-5" value="" style="shape=rect;rounded=1;rSize=3;strokeColor=none;fillColor=#FF9501;" vertex="1" parent="malCh2sEdEqplTAO-f5v-4">
          <mxGeometry y="0.5" width="15" height="15" relative="1" as="geometry">
            <mxPoint x="5" y="-7.5" as="offset" />
          </mxGeometry>
        </mxCell>
        <mxCell id="malCh2sEdEqplTAO-f5v-6" value="" style="shape=mxgraph.ios7.misc.right;strokeColor=#666666;" vertex="1" parent="malCh2sEdEqplTAO-f5v-4">
          <mxGeometry x="1" y="0.5" width="5" height="10" relative="1" as="geometry">
            <mxPoint x="-15" y="-5" as="offset" />
          </mxGeometry>
        </mxCell>
        <mxCell id="malCh2sEdEqplTAO-f5v-7" value="Tráfico Tasado" style="shape=rect;strokeColor=none;fontSize=10;fontColor=#000000;resizeWidth=1;align=left;spacingLeft=25;spacingTop=2;whiteSpace=wrap;html=1;" vertex="1" parent="malCh2sEdEqplTAO-f5v-3">
          <mxGeometry width="120" height="20" relative="1" as="geometry">
            <mxPoint y="20" as="offset" />
          </mxGeometry>
        </mxCell>
        <mxCell id="malCh2sEdEqplTAO-f5v-8" value="" style="shape=rect;rounded=1;rSize=3;strokeColor=none;fillColor=#FF3B2F;" vertex="1" parent="malCh2sEdEqplTAO-f5v-7">
          <mxGeometry y="0.5" width="15" height="15" relative="1" as="geometry">
            <mxPoint x="5" y="-7.5" as="offset" />
          </mxGeometry>
        </mxCell>
        <mxCell id="malCh2sEdEqplTAO-f5v-9" value="" style="shape=mxgraph.ios7.misc.right;strokeColor=#666666;" vertex="1" parent="malCh2sEdEqplTAO-f5v-7">
          <mxGeometry x="1" y="0.5" width="5" height="10" relative="1" as="geometry">
            <mxPoint x="-15" y="-5" as="offset" />
          </mxGeometry>
        </mxCell>
        <mxCell id="malCh2sEdEqplTAO-f5v-10" value="Tráfico IMEI" style="shape=rect;strokeColor=none;fontSize=10;fontColor=#000000;resizeWidth=1;align=left;spacingLeft=25;spacingTop=2;whiteSpace=wrap;html=1;" vertex="1" parent="malCh2sEdEqplTAO-f5v-3">
          <mxGeometry width="120" height="20" relative="1" as="geometry">
            <mxPoint y="40" as="offset" />
          </mxGeometry>
        </mxCell>
        <mxCell id="malCh2sEdEqplTAO-f5v-11" value="" style="shape=rect;rounded=1;rSize=3;strokeColor=none;fillColor=#4CDA64;" vertex="1" parent="malCh2sEdEqplTAO-f5v-10">
          <mxGeometry y="0.5" width="15" height="15" relative="1" as="geometry">
            <mxPoint x="5" y="-7.5" as="offset" />
          </mxGeometry>
        </mxCell>
        <mxCell id="malCh2sEdEqplTAO-f5v-12" value="" style="shape=mxgraph.ios7.misc.right;strokeColor=#666666;" vertex="1" parent="malCh2sEdEqplTAO-f5v-10">
          <mxGeometry x="1" y="0.5" width="5" height="10" relative="1" as="geometry">
            <mxPoint x="-15" y="-5" as="offset" />
          </mxGeometry>
        </mxCell>
        <mxCell id="malCh2sEdEqplTAO-f5v-56" value="" style="edgeStyle=orthogonalEdgeStyle;rounded=0;orthogonalLoop=1;jettySize=auto;html=1;" edge="1" parent="1" source="malCh2sEdEqplTAO-f5v-36" target="malCh2sEdEqplTAO-f5v-54">
          <mxGeometry relative="1" as="geometry" />
        </mxCell>
        <mxCell id="malCh2sEdEqplTAO-f5v-36" value="&lt;font style=&quot;font-size: 10px;&quot;&gt;&lt;b&gt;LISTA&lt;br&gt;COMPONENTES&lt;/b&gt;&lt;/font&gt;" style="sketch=0;pointerEvents=1;shadow=0;dashed=0;html=1;strokeColor=none;fillColor=#005F4B;labelPosition=center;verticalLabelPosition=bottom;verticalAlign=top;align=center;outlineConnect=0;shape=mxgraph.veeam2.task_list;" vertex="1" parent="1">
          <mxGeometry x="-56" y="95.25" width="40" height="61" as="geometry" />
        </mxCell>
        <mxCell id="malCh2sEdEqplTAO-f5v-39" value="" style="image;sketch=0;aspect=fixed;html=1;points=[];align=center;fontSize=12;image=img/lib/mscae/HDInsight.svg;" vertex="1" parent="1">
          <mxGeometry x="-240" y="-99.63" width="45.83" height="44" as="geometry" />
        </mxCell>
        <mxCell id="malCh2sEdEqplTAO-f5v-41" value="&lt;font style=&quot;font-size: 10px;&quot;&gt;&lt;b&gt;ADECUACIONES&lt;br&gt;REFACTORING&lt;/b&gt;&lt;/font&gt;" style="image;sketch=0;aspect=fixed;html=1;points=[];align=center;fontSize=12;image=img/lib/mscae/Developer_Tools.svg;" vertex="1" parent="1">
          <mxGeometry x="460" y="103.75" width="49.35" height="52.5" as="geometry" />
        </mxCell>
        <mxCell id="malCh2sEdEqplTAO-f5v-46" value="&lt;font style=&quot;font-size: 10px;&quot;&gt;&lt;b&gt;LABORATORIO&lt;/b&gt;&lt;/font&gt;" style="editableCssRules=.*;html=1;shape=image;verticalLabelPosition=bottom;labelBackgroundColor=#ffffff;verticalAlign=top;aspect=fixed;imageAspect=0;image=data:image/svg+xml,PHN2ZyB4bWxucz0iaHR0cDovL3d3dy53My5vcmcvMjAwMC9zdmciIHhtbG5zOnY9Imh0dHBzOi8vdmVjdGEuaW8vbmFubyIgd2lkdGg9IjI3MS44OTgxMDE4MDY2NDA2IiBoZWlnaHQ9IjQyMy4wMDQwMjgzMjAzMTI1IiB2aWV3Qm94PSIwLjAwMDQ2MTI3MDM2MzMwMjkwMTQgMCAyNzEuODk4MTAxODA2NjQwNiA0MjMuMDA0MDI4MzIwMzEyNSI+JiN4YTsJPHN0eWxlIHR5cGU9InRleHQvY3NzIj4mI3hhOwkuc3Qwe2ZpbGw6IzQyODVmNDtmaWxsLXJ1bGU6ZXZlbm9kZH0mI3hhOwk8L3N0eWxlPiYjeGE7CTxwYXRoIGNsYXNzPSJzdDAiIGQ9Ik0xOTcuMzc4IDE0NC43NzRhMy4xMSAzLjExIDAgMCAxIDMuMTA1IDIuOTM0bC4wMDUuMTc3djE3LjEwN2EzLjExIDMuMTEgMCAwIDEtMi45MzQgMy4xMDVsLS4xNzcuMDA1aC0xMi40NDF2MzAuNjQ5YzAgMS4yMjcuMjk3IDIuNDM1Ljg2MiAzLjUyMmwuMTYxLjI5MyA4My44OTUgMTQ0LjI2MmExNS4yNiAxNS4yNiAwIDAgMSAuMTgyIDE0LjkzNmwtLjE4Mi4zMjQtMzAuNDMxIDUzLjI4NmExNS4yNiAxNS4yNiAwIDAgMS0xMi44NjEgNy42MjZsLS4zNTUuMDA0SDQ1LjY5MmExNS4yNiAxNS4yNiAwIDAgMS0xMy4wMzUtNy4zMjRsLS4xODEtLjMwNS0zMC40MzEtNTMuMjg2YTE1LjI2IDE1LjI2IDAgMCAxLS4xODItMTQuOTM2bC4xODItLjMyNCA4My42NzQtMTQ0LjI2MmMuNjIxLTEuMDc3IDEuMTYtMi4yODkgMS4yMzQtMy41MjhsLjAwOS0uMjg3di0zMC42NDlINzQuNTJjLTEuNjU4IDAtMy4wMTQtMS4yOTktMy4xMDUtMi45MzRsLS4wMDUtLjE3NnYtMTcuMTA3YTMuMTEgMy4xMSAwIDAgMSAyLjkzNC0zLjEwNWwuMTc2LS4wMDV6bS0zNS43NjkgMjMuMzI3aC01MS4zMnYzNS40MDVjMCAyLjUzMS0uNjI4IDUuMDE4LTEuODI2IDcuMjQybC0uMjE3LjM5TDI4LjAzMyAzNTAuOWE3LjYzIDcuNjMgMCAwIDAtLjEzOSA3LjM3NWwuMTQxLjI1NSAyMC43NDEgMzUuOTIxYTcuNjMgNy42MyAwIDAgMCA2LjMyNyAzLjgxbC4yODEuMDA1aDI1LjU3MmwtMjIuNjA1LTM5LjE1M2MtMS4zMTQtMi4yNzYtMS4zNjEtNS4wNjItLjE0MS03LjM3NWwuMTQxLS4yNTUgMTkuNjc5LTM0LjA4NmgxNDYuNjA2TDIxMi45ODggMjk3LjFoLTU0LjI1OWwtOC44MjEtMTUuMjc4aDU0LjMxMmwtMTYuMzMzLTI4LjQ2aC01NC43OGwtOC44MjEtMTUuMjc4aDU0LjgzM2wtMTUuNDY1LTI2Ljk0NmExNS4yNyAxNS4yNyAwIDAgMS0yLjAzOS03LjE4NWwtLjAwNy0uNDQ2em03Mi44NDQgMTY2LjQwMWwtNTQuMTgxLjAwMSA4LjgyMSAxNS41NTJoNTQuMjg1ek0xMDQuOTIxIDc5Ljc5NWM4LjQyNyAwIDE1LjI1OSA2LjgzMyAxNS4yNTkgMTUuMjYxcy02LjgzMiAxNS4yNTktMTUuMjU5IDE1LjI1OS0xNS4yNTktNi44MzItMTUuMjU5LTE1LjI1OSA2LjgzMi0xNS4yNjEgMTUuMjU5LTE1LjI2MXptNTcuNTc1LTMyLjc0M2MxMi42NDIgMCAyMi44OSAxMC4yNDcgMjIuODkgMjIuODg5cy0xMC4yNDkgMjIuODg5LTIyLjg5IDIyLjg4OS0yMi44ODktMTAuMjQ5LTIyLjg4OS0yMi44ODkgMTAuMjQ3LTIyLjg4OSAyMi44ODktMjIuODg5ek0xMjcuODEgMGM4LjQyNyAwIDE1LjI2MSA2LjgzMyAxNS4yNjEgMTUuMjYxUzEzNi4yMzcgMzAuNTIgMTI3LjgxIDMwLjUycy0xNS4yNTktNi44MzItMTUuMjU5LTE1LjI1OVMxMTkuMzg0IDAgMTI3LjgxIDB6Ii8+JiN4YTs8L3N2Zz4=;" vertex="1" parent="1">
          <mxGeometry x="270" y="70" width="59.15" height="91" as="geometry" />
        </mxCell>
        <mxCell id="malCh2sEdEqplTAO-f5v-47" value="&lt;font style=&quot;font-size: 10px;&quot;&gt;PRODUCCIÓN&lt;/font&gt;" style="image;sketch=0;aspect=fixed;html=1;points=[];align=center;fontSize=12;image=img/lib/mscae/Azure_Test_Plans.svg;" vertex="1" parent="1">
          <mxGeometry x="941.55" y="255" width="63.45" height="70.5" as="geometry" />
        </mxCell>
        <mxCell id="malCh2sEdEqplTAO-f5v-48" value="&lt;font style=&quot;font-size: 10px;&quot;&gt;&lt;b&gt;PRUEBAS&lt;/b&gt;&lt;/font&gt;" style="sketch=0;outlineConnect=0;fontColor=#232F3E;gradientColor=none;fillColor=#01A88D;strokeColor=none;dashed=0;verticalLabelPosition=bottom;verticalAlign=top;align=center;html=1;fontSize=12;fontStyle=0;aspect=fixed;pointerEvents=1;shape=mxgraph.aws4.sagemaker_shadow_testing;" vertex="1" parent="1">
          <mxGeometry x="770" y="96" width="69" height="69" as="geometry" />
        </mxCell>
        <mxCell id="malCh2sEdEqplTAO-f5v-52" style="edgeStyle=orthogonalEdgeStyle;rounded=0;orthogonalLoop=1;jettySize=auto;html=1;entryX=-0.122;entryY=0.51;entryDx=0;entryDy=0;entryPerimeter=0;" edge="1" parent="1" source="malCh2sEdEqplTAO-f5v-46" target="malCh2sEdEqplTAO-f5v-41">
          <mxGeometry relative="1" as="geometry">
            <Array as="points">
              <mxPoint x="395" y="130" />
            </Array>
          </mxGeometry>
        </mxCell>
        <mxCell id="malCh2sEdEqplTAO-f5v-54" value="&lt;font style=&quot;font-size: 8px;&quot;&gt;&lt;b&gt;Componentes completos&lt;/b&gt;&lt;/font&gt;" style="strokeWidth=2;html=1;shape=mxgraph.flowchart.decision;whiteSpace=wrap;" vertex="1" parent="1">
          <mxGeometry x="78" y="93.63" width="80" height="64.25" as="geometry" />
        </mxCell>
        <mxCell id="malCh2sEdEqplTAO-f5v-57" style="edgeStyle=orthogonalEdgeStyle;rounded=0;orthogonalLoop=1;jettySize=auto;html=1;entryX=-0.085;entryY=0.604;entryDx=0;entryDy=0;entryPerimeter=0;" edge="1" parent="1" source="malCh2sEdEqplTAO-f5v-54" target="malCh2sEdEqplTAO-f5v-46">
          <mxGeometry relative="1" as="geometry" />
        </mxCell>
        <mxCell id="malCh2sEdEqplTAO-f5v-63" style="edgeStyle=orthogonalEdgeStyle;rounded=0;orthogonalLoop=1;jettySize=auto;html=1;entryX=0.5;entryY=0;entryDx=0;entryDy=0;" edge="1" parent="1" source="malCh2sEdEqplTAO-f5v-60" target="malCh2sEdEqplTAO-f5v-46">
          <mxGeometry relative="1" as="geometry" />
        </mxCell>
        <mxCell id="malCh2sEdEqplTAO-f5v-60" value="&lt;font style=&quot;font-size: 8px;&quot;&gt;&lt;b&gt;Fuentes Identificadas&lt;/b&gt;&lt;/font&gt;" style="strokeWidth=2;html=1;shape=mxgraph.flowchart.decision;whiteSpace=wrap;" vertex="1" parent="1">
          <mxGeometry x="78" y="-109.75999999999999" width="80" height="64.25" as="geometry" />
        </mxCell>
        <mxCell id="malCh2sEdEqplTAO-f5v-61" style="edgeStyle=orthogonalEdgeStyle;rounded=0;orthogonalLoop=1;jettySize=auto;html=1;entryX=0;entryY=0.5;entryDx=0;entryDy=0;entryPerimeter=0;" edge="1" parent="1" source="malCh2sEdEqplTAO-f5v-71" target="malCh2sEdEqplTAO-f5v-60">
          <mxGeometry relative="1" as="geometry">
            <mxPoint x="-18" y="-9.865000000000009" as="sourcePoint" />
          </mxGeometry>
        </mxCell>
        <mxCell id="malCh2sEdEqplTAO-f5v-65" style="edgeStyle=orthogonalEdgeStyle;rounded=0;orthogonalLoop=1;jettySize=auto;html=1;" edge="1" parent="1" source="malCh2sEdEqplTAO-f5v-64" target="malCh2sEdEqplTAO-f5v-36">
          <mxGeometry relative="1" as="geometry" />
        </mxCell>
        <mxCell id="malCh2sEdEqplTAO-f5v-64" value="&lt;span style=&quot;font-size: 8px;&quot;&gt;&lt;b&gt;Procesos seleccionados&lt;/b&gt;&lt;/span&gt;" style="strokeWidth=2;html=1;shape=mxgraph.flowchart.decision;whiteSpace=wrap;" vertex="1" parent="1">
          <mxGeometry x="-229" y="93.86999999999999" width="80" height="64.25" as="geometry" />
        </mxCell>
        <mxCell id="malCh2sEdEqplTAO-f5v-66" style="edgeStyle=orthogonalEdgeStyle;rounded=0;orthogonalLoop=1;jettySize=auto;html=1;entryX=0;entryY=0.5;entryDx=0;entryDy=0;entryPerimeter=0;" edge="1" parent="1" source="malCh2sEdEqplTAO-f5v-7" target="malCh2sEdEqplTAO-f5v-64">
          <mxGeometry relative="1" as="geometry" />
        </mxCell>
        <mxCell id="malCh2sEdEqplTAO-f5v-67" value="&lt;font style=&quot;font-size: 10px;&quot;&gt;&lt;b&gt;PROCESOS SELECCIONADOS&lt;/b&gt;&lt;/font&gt;" style="text;html=1;strokeColor=none;fillColor=none;align=center;verticalAlign=middle;whiteSpace=wrap;rounded=0;" vertex="1" parent="1">
          <mxGeometry x="-520" y="111" width="60" height="30" as="geometry" />
        </mxCell>
        <mxCell id="malCh2sEdEqplTAO-f5v-68" style="edgeStyle=orthogonalEdgeStyle;rounded=0;orthogonalLoop=1;jettySize=auto;html=1;entryX=0.392;entryY=1.2;entryDx=0;entryDy=0;entryPerimeter=0;" edge="1" parent="1" source="malCh2sEdEqplTAO-f5v-1" target="malCh2sEdEqplTAO-f5v-10">
          <mxGeometry relative="1" as="geometry" />
        </mxCell>
        <mxCell id="malCh2sEdEqplTAO-f5v-71" value="&lt;font style=&quot;font-size: 10px;&quot;&gt;&lt;b&gt;PROD - ASIS&lt;/b&gt;&lt;/font&gt;" style="pointerEvents=1;shadow=0;dashed=0;html=1;strokeColor=none;fillColor=#4495D1;labelPosition=center;verticalLabelPosition=bottom;verticalAlign=top;align=center;outlineConnect=0;shape=mxgraph.veeam.cluster;" vertex="1" parent="1">
          <mxGeometry x="-186" y="-120" width="170" height="84.74" as="geometry" />
        </mxCell>
        <mxCell id="malCh2sEdEqplTAO-f5v-72" value="&lt;font style=&quot;font-size: 8px;&quot;&gt;&lt;b&gt;Pruebas OK&lt;br&gt;Documentación&lt;br&gt;&lt;/b&gt;&lt;/font&gt;" style="strokeWidth=2;html=1;shape=mxgraph.flowchart.decision;whiteSpace=wrap;" vertex="1" parent="1">
          <mxGeometry x="928" y="97.75" width="80" height="64.25" as="geometry" />
        </mxCell>
        <mxCell id="malCh2sEdEqplTAO-f5v-75" style="edgeStyle=orthogonalEdgeStyle;rounded=0;orthogonalLoop=1;jettySize=auto;html=1;" edge="1" parent="1" source="malCh2sEdEqplTAO-f5v-73" target="malCh2sEdEqplTAO-f5v-48">
          <mxGeometry relative="1" as="geometry" />
        </mxCell>
        <mxCell id="malCh2sEdEqplTAO-f5v-73" value="&lt;span style=&quot;font-size: 8px;&quot;&gt;&lt;b&gt;Refactoring Terminado&lt;/b&gt;&lt;/span&gt;" style="strokeWidth=2;html=1;shape=mxgraph.flowchart.decision;whiteSpace=wrap;" vertex="1" parent="1">
          <mxGeometry x="610" y="97.88" width="80" height="64.25" as="geometry" />
        </mxCell>
        <mxCell id="malCh2sEdEqplTAO-f5v-74" style="edgeStyle=orthogonalEdgeStyle;rounded=0;orthogonalLoop=1;jettySize=auto;html=1;entryX=0;entryY=0.5;entryDx=0;entryDy=0;entryPerimeter=0;" edge="1" parent="1" source="malCh2sEdEqplTAO-f5v-41" target="malCh2sEdEqplTAO-f5v-73">
          <mxGeometry relative="1" as="geometry" />
        </mxCell>
        <mxCell id="malCh2sEdEqplTAO-f5v-77" style="edgeStyle=orthogonalEdgeStyle;rounded=0;orthogonalLoop=1;jettySize=auto;html=1;entryX=0;entryY=0.5;entryDx=0;entryDy=0;entryPerimeter=0;" edge="1" parent="1" source="malCh2sEdEqplTAO-f5v-48" target="malCh2sEdEqplTAO-f5v-72">
          <mxGeometry relative="1" as="geometry" />
        </mxCell>
        <mxCell id="malCh2sEdEqplTAO-f5v-79" style="edgeStyle=orthogonalEdgeStyle;rounded=0;orthogonalLoop=1;jettySize=auto;html=1;entryX=0.432;entryY=-0.039;entryDx=0;entryDy=0;entryPerimeter=0;" edge="1" parent="1" source="malCh2sEdEqplTAO-f5v-72" target="malCh2sEdEqplTAO-f5v-47">
          <mxGeometry relative="1" as="geometry" />
        </mxCell>
      </root>
    </mxGraphModel>
  </diagram>
</mxfile>
